<svg width="350" height="350" viewBox="0 0 350 350" fill="none" xmlns="http://www.w3.org/2000/svg">
<g filter="url(#filter0_d_2613_9757)">
<path d="M285.866 191.353C277.912 248.229 229.068 292 170 292C140.177 292 112.961 280.842 92.2969 262.473C105.411 260.349 118.449 257.37 131.63 254.215C143.227 259.842 156.244 263 170 263C205.634 263 236.32 241.819 250.158 211.361C262.267 205.128 274.234 198.532 285.866 191.353ZM170 58C233.465 58 285.126 108.531 286.948 171.556C277.219 176.818 267.284 181.776 257.247 186.552C257.743 182.771 258 178.916 258 175C258 126.399 218.601 87 170 87C121.399 87 82 126.399 82 175C82 200.695 93.0138 223.818 110.577 239.906C100.01 242.798 89.1513 245.502 78.2979 247.667C62.4602 227.708 53 202.459 53 175C53 110.383 105.383 58 170 58Z" fill="url(#paint0_linear_2613_9757)"/>
</g>
<path d="M55.3571 218.596C48.0986 221.807 40.9705 225.318 33.9884 229.199C28.4542 232.307 23.0007 235.588 17.9023 239.644C15.3754 241.723 12.8813 243.839 10.9105 247.054C10.0148 248.59 9.03737 250.887 9.79091 253.47C10.599 256.055 12.5666 257.432 14.3065 258.355C56.9352 268.582 97.383 258.557 137.791 248.354C154.765 243.034 172.053 238.262 189.245 232.545C203.556 227.8 217.753 222.347 231.49 215.849C266.693 198.998 301.576 180.305 331.557 154.502C334.961 151.4 338.504 148.233 340.634 143.161C341.719 140.73 341.667 136.62 339.395 134.307C337.289 132.013 334.792 131.16 332.498 130.504C323.171 128.306 314.276 129.399 305.495 130.718C297.603 132.02 289.85 134 282.334 136.559C290.067 134.769 297.919 133.553 305.763 132.982C314.398 132.433 323.431 132.295 331.16 134.828C333.002 135.478 334.753 136.455 335.522 137.535C336.254 138.575 336.205 139.513 335.516 141.043C334.041 144.043 330.72 146.978 327.443 149.498C296.754 172.468 261.712 189.371 226.647 205.337C213.249 211.364 199.488 216.506 185.46 221.158C168.62 226.76 151.394 231.73 134.266 237.527C96.6737 248.243 54.1362 259.533 16.658 253.484C14.268 252.273 13.9679 251.89 15.0264 249.289C16.1752 246.965 18.2903 244.691 20.4784 242.598C24.9354 238.402 30.0207 234.687 35.1879 231.138C41.7216 226.687 48.4623 222.519 55.3571 218.596Z" fill="url(#paint1_linear_2613_9757)"/>
<path d="M187.283 110C208.001 110 224.934 126.029 226.132 146.245C216.877 127.169 197.182 114 174.381 114C172.774 114 171.182 114.066 169.608 114.194C174.912 111.513 180.919 110 187.283 110Z" fill="#E6ECF5"/>
<defs>
<filter id="filter0_d_2613_9757" x="48.6909" y="57.6083" width="242.566" height="242.618" filterUnits="userSpaceOnUse" color-interpolation-filters="sRGB">
<feFlood flood-opacity="0" result="BackgroundImageFix"/>
<feColorMatrix in="SourceAlpha" type="matrix" values="0 0 0 0 0 0 0 0 0 0 0 0 0 0 0 0 0 0 127 0" result="hardAlpha"/>
<feOffset dy="3.91736"/>
<feGaussianBlur stdDeviation="2.15455"/>
<feComposite in2="hardAlpha" operator="out"/>
<feColorMatrix type="matrix" values="0 0 0 0 0.184314 0 0 0 0 0.227451 0 0 0 0 0.321569 0 0 0 1 0"/>
<feBlend mode="normal" in2="BackgroundImageFix" result="effect1_dropShadow_2613_9757"/>
<feBlend mode="normal" in="SourceGraphic" in2="effect1_dropShadow_2613_9757" result="shape"/>
</filter>
<linearGradient id="paint0_linear_2613_9757" x1="286.948" y1="175" x2="53" y2="175" gradientUnits="userSpaceOnUse">
<stop stop-color="#4D7EFF"/>
<stop offset="1" stop-color="#AFCBFF"/>
</linearGradient>
<linearGradient id="paint1_linear_2613_9757" x1="339.364" y1="192.747" x2="14.5978" y2="192.747" gradientUnits="userSpaceOnUse">
<stop offset="0.0822878" stop-color="#4D7EFF"/>
<stop offset="0.220331" stop-color="#AFCBFF"/>
<stop offset="0.870192" stop-color="#AFCBFF"/>
<stop offset="0.9999" stop-color="#E6ECF5"/>
</linearGradient>
</defs>
</svg>
