<svg viewBox="0 0 508 207" fill="none" xmlns="http://www.w3.org/2000/svg">
<path d="M481.5 4.63477V132.879H506.001V165.576H481.5V201.331H444.396V165.576H353.031V135.243L353.338 134.755L434.603 5.57031L435.191 4.63477H481.5ZM393.238 132.879H444.77V50.7188L393.238 132.879Z" stroke="url(#paint0_linear_2193_20589)" stroke-width="4"/>
<path d="M253.637 2C269.327 2 282.929 5.98513 294.346 14.0322C305.751 22.0712 314.416 33.7007 320.394 48.7969L320.951 50.2217C326.619 65.035 329.421 82.702 329.421 103.171C329.421 124.423 326.435 142.688 320.396 157.911C314.42 173.072 305.757 184.766 294.353 192.869C282.995 200.984 269.389 205 253.637 205C237.882 205 224.247 200.983 212.828 192.869L212.817 192.861C201.483 184.697 192.823 172.978 186.786 157.824L186.782 157.815C180.807 142.594 177.854 124.361 177.854 103.171V103.165L177.868 101.188C178.106 80.8467 181.088 63.3671 186.879 48.8008L186.881 48.7969C192.92 33.7033 201.583 22.0744 212.924 14.0352L212.928 14.0322C224.344 5.98502 237.946 2.00004 253.637 2ZM253.637 35.0742C242.566 35.0743 233.754 40.5378 227.125 51.9551L227.123 51.959C220.463 63.369 216.984 80.3605 216.922 103.176V103.179C216.86 118.418 218.376 131.128 221.418 141.354L221.713 142.309C224.802 152.079 229.038 159.309 234.315 164.166L234.826 164.621C240.139 169.245 246.378 171.55 253.637 171.55C264.779 171.55 273.621 166.108 280.245 154.759L280.246 154.756C286.965 143.287 290.445 126.174 290.445 103.171C290.445 87.99 288.867 75.3416 285.764 65.1777C282.65 54.9815 278.312 47.5021 272.865 42.5518L272.856 42.5439C267.43 37.5536 261.056 35.0742 253.637 35.0742Z" stroke="url(#paint1_linear_2193_20589)" stroke-width="4"/>
<path d="M130.469 4.63477V132.879H154.97V165.576H130.469V201.331H93.3643V165.576H2V135.243L2.30664 134.755L83.5713 5.57031L84.1602 4.63477H130.469ZM42.207 132.879H93.7383V50.7188L42.207 132.879Z" stroke="url(#paint2_linear_2193_20589)" stroke-width="4"/>
<defs>
<linearGradient id="paint0_linear_2193_20589" x1="504.001" y1="102.983" x2="355.031" y2="102.983" gradientUnits="userSpaceOnUse">
<stop stop-color="#4D7EFF"/>
<stop offset="1" stop-color="#AFCBFF"/>
</linearGradient>
<linearGradient id="paint1_linear_2193_20589" x1="327.42" y1="103.5" x2="179.854" y2="103.5" gradientUnits="userSpaceOnUse">
<stop stop-color="#4D7EFF"/>
<stop offset="1" stop-color="#AFCBFF"/>
</linearGradient>
<linearGradient id="paint2_linear_2193_20589" x1="152.97" y1="102.983" x2="3.99999" y2="102.983" gradientUnits="userSpaceOnUse">
<stop stop-color="#4D7EFF"/>
<stop offset="1" stop-color="#AFCBFF"/>
</linearGradient>
</defs>
</svg>
