<svg width="34" height="34" viewBox="0 0 34 34" fill="none" xmlns="http://www.w3.org/2000/svg">
<rect width="34" height="34" rx="17" fill="#E6ECF5"/>
<path d="M9.99851 26.0193C9.72907 26.0193 9.49529 25.9203 9.29718 25.7221C9.09906 25.524 9 25.2902 9 25.0208V22.5245C9 21.0981 9.44378 19.838 10.3314 18.7444C11.2189 17.6508 12.3601 16.9534 13.7548 16.6523C13.1209 17.0961 12.6295 17.6548 12.2808 18.3284C11.9321 19.002 11.7578 19.7271 11.7578 20.5037V25.0208C11.7578 25.1951 11.7816 25.3695 11.8291 25.5438C11.8767 25.7182 11.9559 25.8767 12.0669 26.0193H9.99851ZM13.4933 26.0193C13.2239 26.0193 12.9901 25.9203 12.792 25.7221C12.5939 25.524 12.4948 25.2902 12.4948 25.0208V20.5037C12.4948 19.3943 12.8871 18.4512 13.6716 17.6746C14.4562 16.898 15.4032 16.5097 16.5126 16.5097H21.0059C22.1154 16.5097 23.0584 16.898 23.8351 17.6746C24.6117 18.4512 25 19.3943 25 20.5037V22.0253C25 23.1347 24.6117 24.0778 23.8351 24.8544C23.0584 25.631 22.1154 26.0193 21.0059 26.0193H13.4933ZM17.0119 14.5126C15.9658 14.5126 15.0783 14.1481 14.3492 13.419C13.6201 12.6899 13.2556 11.8024 13.2556 10.7563C13.2556 9.71025 13.6201 8.82268 14.3492 8.09361C15.0783 7.36454 15.9658 7 17.0119 7C18.0579 7 18.9455 7.36454 19.6746 8.09361C20.4037 8.82268 20.7682 9.71025 20.7682 10.7563C20.7682 11.8024 20.4037 12.6899 19.6746 13.419C18.9455 14.1481 18.0579 14.5126 17.0119 14.5126Z" fill="#1F2636"/>
</svg>
