<svg width="37" height="27" viewBox="0 0 37 27" fill="none" xmlns="http://www.w3.org/2000/svg">
<path d="M4.79167 25.2083C3.81944 24.2361 3.33333 23.0556 3.33333 21.6667H0V3.33333C0 2.41667 0.326389 1.63194 0.979167 0.979167C1.63194 0.326389 2.41667 0 3.33333 0H26.6667V6.66667H31.6667L36.6667 13.3333V21.6667H33.3333C33.3333 23.0556 32.8472 24.2361 31.875 25.2083C30.9028 26.1806 29.7222 26.6667 28.3333 26.6667C26.9444 26.6667 25.7639 26.1806 24.7917 25.2083C23.8194 24.2361 23.3333 23.0556 23.3333 21.6667H13.3333C13.3333 23.0556 12.8472 24.2361 11.875 25.2083C10.9028 26.1806 9.72222 26.6667 8.33333 26.6667C6.94444 26.6667 5.76389 26.1806 4.79167 25.2083ZM9.52083 22.8542C9.84028 22.5347 10 22.1389 10 21.6667C10 21.1944 9.84028 20.7986 9.52083 20.4792C9.20139 20.1597 8.80555 20 8.33333 20C7.86111 20 7.46528 20.1597 7.14583 20.4792C6.82639 20.7986 6.66667 21.1944 6.66667 21.6667C6.66667 22.1389 6.82639 22.5347 7.14583 22.8542C7.46528 23.1736 7.86111 23.3333 8.33333 23.3333C8.80555 23.3333 9.20139 23.1736 9.52083 22.8542ZM29.5208 22.8542C29.8403 22.5347 30 22.1389 30 21.6667C30 21.1944 29.8403 20.7986 29.5208 20.4792C29.2014 20.1597 28.8056 20 28.3333 20C27.8611 20 27.4653 20.1597 27.1458 20.4792C26.8264 20.7986 26.6667 21.1944 26.6667 21.6667C26.6667 22.1389 26.8264 22.5347 27.1458 22.8542C27.4653 23.1736 27.8611 23.3333 28.3333 23.3333C28.8056 23.3333 29.2014 23.1736 29.5208 22.8542ZM26.6667 15H33.75L30 10H26.6667V15Z" fill="#E6ECF5"/>
</svg>
