<svg width="147" height="42" viewBox="0 0 147 42" fill="none" xmlns="http://www.w3.org/2000/svg">
<g id="Group 91">
<g id="Ellipse 11" filter="url(#filter0_d_2584_9086)">
<path d="M36.0664 2.54846C45.6986 2.54855 53.5205 10.384 53.5205 20.067C53.5205 29.75 45.6986 37.5855 36.0664 37.5856C26.4342 37.5856 18.6123 29.7501 18.6123 20.067C18.6123 10.3839 26.4342 2.54846 36.0664 2.54846Z" stroke="url(#paint0_linear_2584_9086)" stroke-width="4.96195" shape-rendering="crispEdges"/>
</g>
<path id="Vector" d="M133.004 40.067C132.319 40.067 131.453 40.0467 130.406 40.0062C129.399 39.9657 128.352 39.8847 127.264 39.7632C126.217 39.6012 125.271 39.3785 124.425 39.095C124.022 38.933 123.7 38.771 123.458 38.609C123.216 38.447 123.035 38.1635 122.914 37.7585C122.834 37.3535 122.793 36.7459 122.793 35.9359C123.68 36.3814 124.727 36.746 125.935 37.0295C127.144 37.2725 128.352 37.4345 129.56 37.5155C130.769 37.5965 131.776 37.637 132.581 37.637C133.79 37.637 134.958 37.5965 136.085 37.5155C137.254 37.394 138.301 37.1712 139.227 36.8472C140.154 36.4827 140.879 35.9562 141.402 35.2677C141.966 34.5792 142.248 33.6679 142.248 32.5339C142.248 30.8734 141.825 29.8204 140.979 29.3749C140.133 28.8888 138.986 28.6458 137.535 28.6458H131.433C129.943 28.6458 128.533 28.5648 127.204 28.4028C125.915 28.2003 124.848 27.6941 124.002 26.8841C123.196 26.0336 122.793 24.616 122.793 22.6315C122.793 20.485 123.317 18.8852 124.364 17.8322C125.412 16.7792 126.882 16.0907 128.775 15.7667C130.708 15.4427 132.944 15.2807 135.481 15.2807C136.408 15.2807 137.515 15.3009 138.804 15.3414C140.093 15.3819 141.322 15.5034 142.49 15.7059C143.295 15.8274 143.96 15.9894 144.484 16.1919C145.047 16.3539 145.45 16.5969 145.692 16.9209C145.974 17.2449 146.115 17.7107 146.115 18.3182V19.5332C145.752 19.1282 145.148 18.8042 144.302 18.5612C143.456 18.3182 142.47 18.136 141.342 18.0145C140.254 17.893 139.127 17.8322 137.958 17.8322C136.79 17.7917 135.703 17.7715 134.696 17.7715C133.407 17.7715 132.158 17.8525 130.95 18.0145C129.742 18.1765 128.755 18.5815 127.989 19.2295C127.264 19.837 126.902 20.89 126.902 22.3885C126.902 23.5225 127.144 24.3528 127.627 24.8793C128.11 25.4058 128.755 25.7501 129.56 25.9121C130.406 26.0336 131.353 26.0943 132.4 26.0943H138.623C140.154 26.0943 141.503 26.2361 142.671 26.5196C143.879 26.7626 144.806 27.3498 145.45 28.2813C146.135 29.1724 146.477 30.5899 146.477 32.5339C146.477 34.6804 145.893 36.3004 144.725 37.394C143.557 38.4875 141.946 39.2165 139.892 39.581C137.878 39.905 135.582 40.067 133.004 40.067Z" fill="#AFCBFF"/>
<path id="Vector_2" d="M114.666 40.067C112.778 40.067 111.512 39.5617 110.869 38.5509C110.226 37.5401 109.905 36.0644 109.905 34.1238V15.6269H114.124V33.8812C114.124 35.5389 114.304 36.6507 114.666 37.2167C115.028 37.7827 115.671 38.0657 116.595 38.0657C116.916 38.0657 117.318 38.0253 117.8 37.9445C118.282 37.8636 118.584 37.8029 118.704 37.7625V39.6425C118.584 39.683 118.343 39.7436 117.981 39.8245C117.66 39.8649 117.218 39.9053 116.655 39.9457C116.133 40.0266 115.47 40.067 114.666 40.067ZM112.074 12.1095C111.391 12.1095 110.849 12.0084 110.447 11.8063C110.045 11.6041 109.844 11.1796 109.844 10.5327C109.844 9.88583 110.025 9.46131 110.387 9.25916C110.789 9.05701 111.331 8.95593 112.014 8.95593C112.778 8.95593 113.34 9.05701 113.702 9.25916C114.063 9.46131 114.224 9.88583 114.184 10.5327C114.184 11.1796 114.003 11.6041 113.641 11.8063C113.28 12.0084 112.757 12.1095 112.074 12.1095Z" fill="#AFCBFF"/>
<g id="Vector 8" filter="url(#filter1_d_2584_9086)">
<path d="M15.4868 27.1305C15.4868 27.1305 15.4868 27.1305 15.4868 27.1305C13.12 27.9129 10.7735 28.7806 8.45939 29.7582C6.80206 30.4659 5.15895 31.2156 3.57647 32.1618C2.79112 32.6486 1.99785 33.1448 1.30649 33.9491C0.9894 34.3459 0.508532 35.0373 0.86088 35.9224C1.25399 36.7177 1.81636 36.9197 2.32256 37.1509C15.8893 39.7676 28.8815 37.4142 41.9855 34.9026C47.5883 33.5701 53.1959 32.2193 58.7824 30.7195C63.2515 29.5225 67.7048 28.2365 72.1299 26.8874C83.9302 23.2313 95.5788 18.6479 105.956 11.7327C106.598 11.2946 107.15 10.8904 107.743 10.3199C107.876 10.1888 108.024 10.034 108.164 9.86473C108.233 9.78159 108.297 9.69966 108.358 9.61382C108.432 9.5103 108.499 9.4054 108.559 9.29788C108.667 9.10666 108.802 8.79867 108.84 8.49467C108.891 8.14236 108.824 7.75191 108.642 7.43594C107.824 6.3047 106.973 6.33685 106.243 6.14121C105.502 6.00635 104.76 5.95375 104.054 5.92914C101.189 5.85285 98.4026 6.14079 95.6248 6.50058C93.1388 6.83332 90.6732 7.25851 88.2323 7.78169C90.7129 7.50629 93.1995 7.31922 95.6872 7.21306C98.4591 7.10506 101.251 7.06146 103.95 7.35007C104.61 7.42591 105.294 7.53028 105.901 7.69121C106.204 7.77179 106.498 7.86956 106.737 7.98768C106.968 8.09202 107.144 8.27106 107.108 8.26745C107.096 8.26533 107.083 8.21018 107.078 8.22217C107.073 8.22733 107.043 8.29994 106.992 8.37098C106.938 8.45051 106.857 8.54783 106.769 8.63817C106.676 8.73515 106.565 8.83678 106.459 8.9257C105.986 9.32217 105.47 9.65208 104.866 10.0077C94.3568 16.0242 82.7598 20.026 71.1022 23.4002C66.6751 24.6605 62.2433 25.8957 57.8079 27.0836C52.2653 28.5717 46.6998 29.9812 41.1207 31.4457C28.7224 34.1788 15.224 37.0511 2.88239 35.6417C2.51134 35.5324 2.24797 35.338 2.23474 35.3046C2.22356 35.2954 2.20178 35.2899 2.22269 35.1891C2.2461 35.0889 2.31154 34.954 2.41684 34.8028C2.82741 34.2217 3.53529 33.6527 4.22788 33.148C5.64324 32.1318 7.19909 31.2473 8.76796 30.4034C10.9635 29.2321 13.2118 28.1463 15.4868 27.1305Z" fill="url(#paint1_linear_2584_9086)"/>
</g>
<path id="Subtract" d="M95.0933 22.0048C97.9162 22.0048 100.114 22.3906 101.687 23.162C103.3 23.9335 104.429 25.2124 105.075 26.9989C105.76 28.7852 105.746 29.7252 105.746 30.4501C105.746 31.3139 105.861 33.0017 105.256 34.7069C104.692 36.3717 103.865 37.5898 102.776 38.3612C101.727 39.1326 100.437 39.6201 98.9048 39.8232C97.3722 39.9856 95.6577 40.0673 93.7622 40.0673C91.5039 40.0673 89.6284 39.9457 88.1362 39.7021C86.6845 39.4178 85.5753 38.8695 84.8091 38.0575C84.0428 37.2455 83.5191 36.0473 83.2368 34.4638C82.9545 32.8802 82.813 33.4048 82.813 30.7655L82.7964 24.8681L90.2915 22.1874C90.3191 22.1874 90.3467 22.1874 90.3745 22.1874C91.2618 22.1468 92.1292 22.1059 92.9761 22.0653C93.8229 22.0247 94.5287 22.0048 95.0933 22.0048ZM94.4282 24.5019C93.8637 24.5019 93.1982 24.5218 92.4321 24.5624C91.666 24.5624 90.8792 24.5833 90.0728 24.6239C89.3065 24.6645 88.6541 24.6806 88.02 24.6806C87.5184 24.6806 86.9868 24.6239 86.9868 25.1825V31.2528C86.9868 33.2018 87.0475 32.129 87.1685 33.3065C87.3298 34.4839 87.6321 35.3772 88.0757 35.9862C88.5193 36.5953 89.2057 37.0219 90.1333 37.2655C91.0608 37.4685 92.2906 37.5702 93.8228 37.5702C95.9198 37.5702 97.5334 37.3469 98.6626 36.9003C99.8322 36.4131 100.896 35.2168 101.083 34.7987C101.729 33.3462 101.732 31.7053 101.816 31.454C101.983 29.6144 101.398 28.4437 101.083 27.8583C100.65 27.0569 99.812 26.0855 98.7231 25.4765C97.6343 24.8268 96.2026 24.5019 94.4282 24.5019ZM86.9263 15.9511L82.7749 17.4345L82.7524 9.12686H86.9263V15.9511Z" fill="#AFCBFF"/>
<path id="Subtract_2" d="M64.322 40.0669H61.6619C61.1382 40.0669 60.7349 39.9458 60.4529 39.7026C60.2111 39.4189 60.0906 38.9117 60.0906 38.1821V31.7437L64.322 30.5728V40.0669ZM69.5203 15.6226C71.6961 15.6226 73.4088 15.7846 74.658 16.1089C75.9472 16.3926 76.8741 16.7978 77.4382 17.3247C78.0427 17.8517 78.4745 18.8079 78.5564 19.0552C78.5855 19.1432 78.6221 19.3136 78.6609 19.5151L74.7751 20.8735C74.7281 19.9617 74.428 19.3054 73.8718 18.9058C73.3078 18.4601 72.643 18.1968 71.8777 18.1157C71.1122 17.9941 70.3463 17.9331 69.5808 17.9331C68.4122 17.9331 67.3641 18.0341 66.4373 18.2368C65.5508 18.4395 64.8459 18.7036 64.322 19.0278V24.1899L60.0906 25.3608V17.021C60.9771 16.7372 62.1863 16.4332 63.7175 16.1089C65.289 15.7846 67.2235 15.6226 69.5203 15.6226Z" fill="#AFCBFF"/>
<path id="Subtract_3" d="M39.6577 8.27213C43.3201 8.27213 46.2896 11.2218 46.2896 14.86C46.2895 15.4811 46.2003 16.0814 46.0386 16.651C45.043 12.3362 41.1577 9.11696 36.5122 9.11685C36.4768 9.11685 36.4411 9.11843 36.4058 9.1188C37.3667 8.58043 38.4758 8.27217 39.6577 8.27213Z" fill="#E6ECF5"/>
</g>
<defs>
<filter id="filter0_d_2584_9086" x="15.3936" y="-1.00136e-05" width="41.3454" height="41.4746" filterUnits="userSpaceOnUse" color-interpolation-filters="sRGB">
<feFlood flood-opacity="0" result="BackgroundImageFix"/>
<feColorMatrix in="SourceAlpha" type="matrix" values="0 0 0 0 0 0 0 0 0 0 0 0 0 0 0 0 0 0 127 0" result="hardAlpha"/>
<feOffset dy="0.670266"/>
<feGaussianBlur stdDeviation="0.368646"/>
<feComposite in2="hardAlpha" operator="out"/>
<feColorMatrix type="matrix" values="0 0 0 0 0.184314 0 0 0 0 0.227451 0 0 0 0 0.321569 0 0 0 1 0"/>
<feBlend mode="normal" in2="BackgroundImageFix" result="effect1_dropShadow_2584_9086"/>
<feBlend mode="normal" in="SourceGraphic" in2="effect1_dropShadow_2584_9086" result="shape"/>
</filter>
<filter id="filter1_d_2584_9086" x="1.2219e-05" y="5.84978" width="109.594" height="33.8527" filterUnits="userSpaceOnUse" color-interpolation-filters="sRGB">
<feFlood flood-opacity="0" result="BackgroundImageFix"/>
<feColorMatrix in="SourceAlpha" type="matrix" values="0 0 0 0 0 0 0 0 0 0 0 0 0 0 0 0 0 0 127 0" result="hardAlpha"/>
<feOffset dy="0.670266"/>
<feGaussianBlur stdDeviation="0.368646"/>
<feComposite in2="hardAlpha" operator="out"/>
<feColorMatrix type="matrix" values="0 0 0 0 0.184314 0 0 0 0 0.227451 0 0 0 0 0.321569 0 0 0 1 0"/>
<feBlend mode="normal" in2="BackgroundImageFix" result="effect1_dropShadow_2584_9086"/>
<feBlend mode="normal" in="SourceGraphic" in2="effect1_dropShadow_2584_9086" result="shape"/>
</filter>
<linearGradient id="paint0_linear_2584_9086" x1="56.0016" y1="20.067" x2="16.1309" y2="20.067" gradientUnits="userSpaceOnUse">
<stop stop-color="#4D7EFF"/>
<stop offset="1" stop-color="#AFCBFF"/>
</linearGradient>
<linearGradient id="paint1_linear_2584_9086" x1="107.255" y1="20.7136" x2="2.3167" y2="20.7136" gradientUnits="userSpaceOnUse">
<stop offset="0.0822878" stop-color="#4D7EFF"/>
<stop offset="0.220331" stop-color="#AFCBFF"/>
<stop offset="0.870192" stop-color="#AFCBFF"/>
<stop offset="0.9999" stop-color="#E6ECF5"/>
</linearGradient>
</defs>
</svg>
