<svg viewBox="0 0 16 14" fill="none" xmlns="http://www.w3.org/2000/svg">
<path d="M2.18182 14V6.70833L0.872727 7.77778L0 6.53333L8 0L16 6.53333L15.1273 7.75833L13.8182 6.70833V14H2.18182ZM5.09091 9.33333C4.88485 9.33333 4.71212 9.2588 4.57273 9.10972C4.43333 8.96065 4.36364 8.77593 4.36364 8.55556C4.36364 8.33519 4.43333 8.15046 4.57273 8.00139C4.71212 7.85232 4.88485 7.77778 5.09091 7.77778C5.29697 7.77778 5.4697 7.85232 5.60909 8.00139C5.74849 8.15046 5.81818 8.33519 5.81818 8.55556C5.81818 8.77593 5.74849 8.96065 5.60909 9.10972C5.4697 9.2588 5.29697 9.33333 5.09091 9.33333ZM8 9.33333C7.79394 9.33333 7.62121 9.2588 7.48182 9.10972C7.34242 8.96065 7.27273 8.77593 7.27273 8.55556C7.27273 8.33519 7.34242 8.15046 7.48182 8.00139C7.62121 7.85232 7.79394 7.77778 8 7.77778C8.20606 7.77778 8.37879 7.85232 8.51818 8.00139C8.65758 8.15046 8.72727 8.33519 8.72727 8.55556C8.72727 8.77593 8.65758 8.96065 8.51818 9.10972C8.37879 9.2588 8.20606 9.33333 8 9.33333ZM10.9091 9.33333C10.703 9.33333 10.5303 9.2588 10.3909 9.10972C10.2515 8.96065 10.1818 8.77593 10.1818 8.55556C10.1818 8.33519 10.2515 8.15046 10.3909 8.00139C10.5303 7.85232 10.703 7.77778 10.9091 7.77778C11.1152 7.77778 11.2879 7.85232 11.4273 8.00139C11.5667 8.15046 11.6364 8.33519 11.6364 8.55556C11.6364 8.77593 11.5667 8.96065 11.4273 9.10972C11.2879 9.2588 11.1152 9.33333 10.9091 9.33333Z" fill="#E6ECF5"/>
</svg>
