<svg width="26" height="26" viewBox="0 0 26 26" fill="none" xmlns="http://www.w3.org/2000/svg">
<path d="M5.96926 25.2362C5.45963 24.7271 5.20481 24.115 5.20481 23.4C5.20481 22.685 5.45963 22.0729 5.96926 21.5637C6.4789 21.0546 7.09155 20.8 7.80721 20.8C8.52287 20.8 9.13552 21.0546 9.64516 21.5637C10.1548 22.0729 10.4096 22.685 10.4096 23.4C10.4096 24.115 10.1548 24.7271 9.64516 25.2362C9.13552 25.7454 8.52287 26 7.80721 26C7.09155 26 6.4789 25.7454 5.96926 25.2362ZM18.9813 25.2362C18.4716 24.7271 18.2168 24.115 18.2168 23.4C18.2168 22.685 18.4716 22.0729 18.9813 21.5637C19.4909 21.0546 20.1036 20.8 20.8192 20.8C21.5349 20.8 22.1475 21.0546 22.6572 21.5637C23.1668 22.0729 23.4216 22.685 23.4216 23.4C23.4216 24.115 23.1668 24.7271 22.6572 25.2362C22.1475 25.7454 21.5349 26 20.8192 26C20.1036 26 19.4909 25.7454 18.9813 25.2362ZM5.46505 2.6H24.6578C25.1566 2.6 25.5361 2.82208 25.7963 3.26625C26.0566 3.71042 26.0674 4.16 25.8289 4.615L21.2096 12.935C20.971 13.3683 20.6512 13.7042 20.25 13.9425C19.8488 14.1808 19.4096 14.3 18.9325 14.3H9.23853L7.80721 16.9H23.4216V19.5H7.80721C6.83131 19.5 6.09396 19.0721 5.59517 18.2162C5.09638 17.3604 5.07469 16.51 5.53011 15.665L7.28673 12.48L2.6024 2.6H0V0H4.22891L5.46505 2.6Z" fill="#E6ECF5"/>
</svg>
