<svg width="22" height="32" viewBox="0 0 22 32" fill="none" xmlns="http://www.w3.org/2000/svg">
<path d="M6.28571 14.9286V12.5714H15.7143V14.9286H6.28571ZM7.85714 19.6429V17.2857H14.1429V19.6429H7.85714ZM6.28571 31.4286L4.16429 24.2786C2.90714 23.2833 1.89881 22.0393 1.13929 20.5464C0.379762 19.0536 0 17.4429 0 15.7143C0 13.9857 0.379762 12.375 1.13929 10.8821C1.89881 9.38929 2.90714 8.14524 4.16429 7.15L6.28571 0H15.7143L17.8357 7.15C19.0929 8.14524 20.1012 9.38929 20.8607 10.8821C21.6202 12.375 22 13.9857 22 15.7143C22 17.4429 21.6202 19.0536 20.8607 20.5464C20.1012 22.0393 19.0929 23.2833 17.8357 24.2786L15.7143 31.4286H6.28571ZM16.5589 21.2732C18.0911 19.7411 18.8571 17.8881 18.8571 15.7143C18.8571 13.5405 18.0911 11.6875 16.5589 10.1554C15.0268 8.62321 13.1738 7.85714 11 7.85714C8.82619 7.85714 6.97321 8.62321 5.44107 10.1554C3.90893 11.6875 3.14286 13.5405 3.14286 15.7143C3.14286 17.8881 3.90893 19.7411 5.44107 21.2732C6.97321 22.8054 8.82619 23.5714 11 23.5714C13.1738 23.5714 15.0268 22.8054 16.5589 21.2732Z" fill="#1F2636"/>
</svg>
