<svg width="32" height="30" viewBox="0 0 32 30" fill="none" xmlns="http://www.w3.org/2000/svg">
<path d="M6.84261 13.25L5.31638 14.1667C4.96025 14.3889 4.5787 14.4444 4.1717 14.3333C3.76471 14.2222 3.45946 13.9722 3.25596 13.5833L0.203498 7.75C0 7.36111 -0.0508744 6.94444 0.0508744 6.5C0.152623 6.05556 0.381558 5.72222 0.737679 5.5L9.51351 0H12.1844C12.4134 0 12.5978 0.0763889 12.7377 0.229167C12.8776 0.381944 12.9475 0.583333 12.9475 0.833333V1.66667C12.9475 2.58333 13.2464 3.36806 13.8442 4.02083C14.442 4.67361 15.1606 5 16 5C16.8394 5 17.558 4.67361 18.1558 4.02083C18.7536 3.36806 19.0525 2.58333 19.0525 1.66667V0.833333C19.0525 0.583333 19.1224 0.381944 19.2623 0.229167C19.4022 0.0763889 19.5866 0 19.8156 0H22.4865L31.2623 5.5C31.6184 5.72222 31.8474 6.05556 31.9491 6.5C32.0509 6.94444 32 7.36111 31.7965 7.75L28.744 13.5833C28.5405 13.9722 28.2417 14.2153 27.8474 14.3125C27.4531 14.4097 27.0652 14.3472 26.6836 14.125L25.1574 13.2917V28.3333C25.1574 28.8056 25.0111 29.2014 24.7186 29.5208C24.4261 29.8403 24.0636 30 23.6312 30H8.36884C7.93641 30 7.57393 29.8403 7.2814 29.5208C6.98887 29.2014 6.84261 28.8056 6.84261 28.3333V13.25Z" fill="#1F2636"/>
</svg>
