<svg width="32" height="32" viewBox="0 0 32 32" fill="none" xmlns="http://www.w3.org/2000/svg">
<path d="M10.9474 19.2H14.3158V11.2H10.9474V19.2ZM4.21053 22.4V16.8C2.9193 16.1867 1.89474 15.3 1.13684 14.14C0.378947 12.98 0 11.72 0 10.36C0 8.36 0.722807 6.66667 2.16842 5.28C3.61404 3.89333 5.38947 3.2 7.49474 3.2C7.83158 3.2 8.17544 3.22667 8.52632 3.28C8.87719 3.33333 9.22105 3.4 9.55789 3.48C10.2596 2.38667 11.1719 1.53333 12.2947 0.92C13.4175 0.306667 14.6526 0 16 0C17.3474 0 18.5825 0.306667 19.7053 0.92C20.8281 1.53333 21.7404 2.38667 22.4421 3.48C22.7789 3.4 23.1158 3.33333 23.4526 3.28C23.7895 3.22667 24.1404 3.2 24.5053 3.2C26.6105 3.2 28.386 3.89333 29.8316 5.28C31.2772 6.66667 32 8.36 32 10.36C32 11.72 31.6211 12.98 30.8632 14.14C30.1053 15.3 29.0807 16.1867 27.7895 16.8V22.4H4.21053ZM17.6842 19.2H21.0526V11.2H17.6842V19.2ZM4.21053 32V25.6H27.7895V32H4.21053Z" fill="#1F2636"/>
</svg>
