<svg width="26" height="32" viewBox="0 0 26 32" fill="none" xmlns="http://www.w3.org/2000/svg">
<path d="M16.25 32V23.0698L12.8375 20.093L11.2125 26.6419L0 24.5581L0.65 21.5814L8.45 23.0698L11.05 11.014L8.125 12.0558V17.1163H4.875V10.1209L11.2938 7.5907C12.2417 7.2186 12.9391 6.97674 13.3859 6.86512C13.8328 6.75349 14.2458 6.69767 14.625 6.69767C15.1938 6.69767 15.7219 6.83411 16.2094 7.10698C16.6969 7.37985 17.0896 7.73953 17.3875 8.18605L19.0125 10.5674C19.7167 11.6093 20.6714 12.4651 21.8766 13.1349C23.0818 13.8047 24.4562 14.1395 26 14.1395V17.1163C24.2125 17.1163 22.5401 16.7752 20.9828 16.093C19.4255 15.4109 18.1187 14.5116 17.0625 13.3953L16.0875 17.8605L19.5 20.8372V32H16.25ZM14.7672 5.07907C14.1307 4.49612 13.8125 3.79535 13.8125 2.97674C13.8125 2.15814 14.1307 1.45736 14.7672 0.874419C15.4036 0.291473 16.1688 0 17.0625 0C17.9562 0 18.7214 0.291473 19.3578 0.874419C19.9943 1.45736 20.3125 2.15814 20.3125 2.97674C20.3125 3.79535 19.9943 4.49612 19.3578 5.07907C18.7214 5.66202 17.9562 5.95349 17.0625 5.95349C16.1688 5.95349 15.4036 5.66202 14.7672 5.07907Z" fill="#1F2636"/>
</svg>
