<svg width="28" height="28" viewBox="0 0 28 28" fill="none" xmlns="http://www.w3.org/2000/svg">
<path d="M8.54 26.8975C6.83667 26.1625 5.355 25.165 4.095 23.905C2.835 22.645 1.8375 21.1633 1.1025 19.46C0.3675 17.7567 0 15.9367 0 14V0.7L8.435 7.035C9.15833 5.93833 9.98083 4.80667 10.9025 3.64C11.8242 2.47333 12.8567 1.26 14 0C15.05 1.16667 16.0533 2.35083 17.01 3.5525C17.9667 4.75417 18.8067 5.915 19.53 7.035L28 0.7V14C28 15.9367 27.6325 17.7567 26.8975 19.46C26.1625 21.1633 25.165 22.645 23.905 23.905C22.645 25.165 21.1633 26.1625 19.46 26.8975C17.7567 27.6325 15.9367 28 14 28C12.0633 28 10.2433 27.6325 8.54 26.8975Z" fill="#1F2636"/>
</svg>
