<svg width="32" height="33" viewBox="0 0 32 33" fill="none" xmlns="http://www.w3.org/2000/svg">
<path d="M15.9998 33C13.4869 32.67 11.2413 32.01 9.26302 31.02C7.28477 30.03 5.60727 28.7375 4.23052 27.1425C2.85376 25.5475 1.80449 23.6981 1.08269 21.5944C0.360897 19.4906 0 17.16 0 14.6025C2.94064 14.905 5.42682 15.455 7.45854 16.2525C9.49026 17.05 11.141 18.1775 12.4108 19.635C13.6807 21.0925 14.5963 22.9144 15.1577 25.1006C15.7191 27.2869 15.9998 29.92 15.9998 33ZM15.9998 19.0987C15.3849 18.1362 14.5495 17.1875 13.4935 16.2525C12.4376 15.3175 11.2145 14.465 9.82442 13.695C9.98482 12.54 10.2521 11.3438 10.6264 10.1062C11.0007 8.86875 11.4551 7.65188 11.9898 6.45563C12.5245 5.25938 13.1326 4.11125 13.8143 3.01125C14.496 1.91125 15.2245 0.9075 15.9998 0C16.775 0.9075 17.5035 1.91125 18.1852 3.01125C18.8669 4.11125 19.4751 5.25938 20.0097 6.45563C20.5444 7.65188 20.9989 8.86875 21.3731 10.1062C21.7474 11.3438 22.0147 12.54 22.1751 13.695C20.785 14.4375 19.562 15.2762 18.506 16.2113C17.45 17.1462 16.6146 18.1087 15.9998 19.0987ZM19.2077 32.34C19.1543 30.415 19.0139 28.6344 18.7867 26.9981C18.5595 25.3619 18.2053 23.815 17.7241 22.3575C18.9805 20.13 20.7115 18.315 22.917 16.9125C25.1224 15.51 28.15 14.74 31.9995 14.6025C32.0263 18.9475 30.8968 22.6944 28.6111 25.8431C26.3254 28.9919 23.191 31.1575 19.2077 32.34Z" fill="#1F2636"/>
</svg>
