<svg width="32" height="32" viewBox="0 0 32 32" fill="none" xmlns="http://www.w3.org/2000/svg">
<path d="M8.72727 32C6.30303 32 4.24242 31.0667 2.54545 29.2C0.848485 27.3333 0 25.0667 0 22.4V11.2H17.4545V22.4C17.4545 25.0667 16.6061 27.3333 14.9091 29.2C13.2121 31.0667 11.1515 32 8.72727 32ZM5.81818 20C6.2303 20 6.57576 19.8467 6.85455 19.54C7.13333 19.2333 7.27273 18.8533 7.27273 18.4C7.27273 17.9467 7.13333 17.5667 6.85455 17.26C6.57576 16.9533 6.2303 16.8 5.81818 16.8C5.40606 16.8 5.06061 16.9533 4.78182 17.26C4.50303 17.5667 4.36364 17.9467 4.36364 18.4C4.36364 18.8533 4.50303 19.2333 4.78182 19.54C5.06061 19.8467 5.40606 20 5.81818 20ZM11.2545 24.62C11.9939 24.0733 12.3636 23.3333 12.3636 22.4H5.09091C5.09091 23.3333 5.46061 24.0733 6.2 24.62C6.93939 25.1667 7.78182 25.44 8.72727 25.44C9.67273 25.44 10.5152 25.1667 11.2545 24.62ZM12.6727 19.54C12.9515 19.2333 13.0909 18.8533 13.0909 18.4C13.0909 17.9467 12.9515 17.5667 12.6727 17.26C12.3939 16.9533 12.0485 16.8 11.6364 16.8C11.2242 16.8 10.8788 16.9533 10.6 17.26C10.3212 17.5667 10.1818 17.9467 10.1818 18.4C10.1818 18.8533 10.3212 19.2333 10.6 19.54C10.8788 19.8467 11.2242 20 11.6364 20C12.0485 20 12.3939 19.8467 12.6727 19.54ZM23.2727 20.8C22.6424 20.8 22.0182 20.7267 21.4 20.58C20.7818 20.4333 20.1939 20.2133 19.6364 19.92V8.8H14.5455V0H32V11.2C32 13.8667 31.1515 16.1333 29.4545 18C27.7576 19.8667 25.697 20.8 23.2727 20.8ZM20.3636 8.8C20.7758 8.8 21.1212 8.64667 21.4 8.34C21.6788 8.03333 21.8182 7.65333 21.8182 7.2C21.8182 6.74667 21.6788 6.36667 21.4 6.06C21.1212 5.75333 20.7758 5.6 20.3636 5.6C19.9515 5.6 19.6061 5.75333 19.3273 6.06C19.0485 6.36667 18.9091 6.74667 18.9091 7.2C18.9091 7.65333 19.0485 8.03333 19.3273 8.34C19.6061 8.64667 19.9515 8.8 20.3636 8.8ZM19.6364 14.24H26.9091C26.9091 13.3067 26.5394 12.5667 25.8 12.02C25.0606 11.4733 24.2182 11.2 23.2727 11.2C22.4485 11.2 21.6364 11.44 20.8364 11.92C20.0364 12.4 19.6364 13.1733 19.6364 14.24ZM26.1818 8.8C26.5939 8.8 26.9394 8.64667 27.2182 8.34C27.497 8.03333 27.6364 7.65333 27.6364 7.2C27.6364 6.74667 27.497 6.36667 27.2182 6.06C26.9394 5.75333 26.5939 5.6 26.1818 5.6C25.7697 5.6 25.4242 5.75333 25.1455 6.06C24.8667 6.36667 24.7273 6.74667 24.7273 7.2C24.7273 7.65333 24.8667 8.03333 25.1455 8.34C25.4242 8.64667 25.7697 8.8 26.1818 8.8Z" fill="#1F2636"/>
</svg>
